# Blender v2.78 (sub 0) OBJ File: ''
# www.blender.org
o Arrow-low-poly
v -0.046181 -1.453159 0.114844
v -0.046181 0.296825 0.114844
v 0.002859 -1.453159 0.135157
v 0.002859 0.296825 0.135157
v 0.023171 -1.453159 0.184196
v 0.023171 0.296825 0.184196
v 0.002859 -1.453159 0.233235
v 0.002859 0.296825 0.233235
v -0.046181 -1.453159 0.253548
v -0.046181 0.296825 0.253548
v -0.095220 -1.453159 0.233235
v -0.095220 0.296825 0.233235
v -0.115533 -1.453159 0.184196
v -0.115533 0.296825 0.184196
v -0.095220 -1.453159 0.135157
v -0.095220 0.296825 0.135157
v 0.092372 0.296825 0.045643
v -0.046181 0.296825 -0.011747
v 0.149763 0.296825 0.184196
v 0.092372 0.296825 0.322749
v -0.046181 0.296825 0.380139
v -0.184733 0.296825 0.322749
v -0.242124 0.296825 0.184196
v -0.184733 0.296825 0.045643
v -0.046181 0.654933 0.184196
v -0.046181 -1.453159 0.114844
v 0.002859 -1.453159 0.135157
v 0.002859 0.296825 0.135157
v -0.046181 0.296825 0.114844
v 0.023171 -1.453159 0.184196
v 0.023171 0.296825 0.184196
v 0.002859 -1.453159 0.233235
v 0.002859 0.296825 0.233235
v -0.046181 -1.453159 0.253548
v -0.046181 0.296825 0.253548
v -0.095220 -1.453159 0.233235
v -0.095220 0.296825 0.233235
v -0.115533 -1.453159 0.184196
v -0.115533 0.296825 0.184196
v -0.095220 -1.453159 0.135157
v -0.095220 0.296825 0.135157
v 0.092372 0.296825 0.045643
v -0.046181 0.296825 -0.011747
v 0.149763 0.296825 0.184196
v 0.092372 0.296825 0.322749
v -0.046181 0.296825 0.380139
v -0.184733 0.296825 0.322749
v -0.242124 0.296825 0.184196
v -0.184733 0.296825 0.045643
vn 0.0000 0.0000 -1.0000
vn 0.7071 0.0000 -0.7071
vn 1.0000 0.0000 0.0000
vn 0.7071 0.0000 0.7071
vn 0.0000 0.0000 1.0000
vn -0.7071 0.0000 0.7071
vn -1.0000 0.0000 0.0000
vn 0.0000 -1.0000 0.0000
vn -0.7071 0.0000 -0.7071
vn 0.0000 0.4800 -0.8773
vn -0.6203 0.4800 -0.6203
vn 0.0000 1.0000 0.0000
vn -0.8773 0.4800 0.0000
vn -0.6203 0.4800 0.6203
vn 0.0000 0.4800 0.8773
vn 0.6203 0.4800 0.6203
vn 0.8773 0.4800 0.0000
vn 0.6203 0.4800 -0.6203
s 1
f 29//1 27//2 26//1
f 28//2 30//3 27//2
f 31//3 32//4 30//3
f 33//4 34//5 32//4
f 35//5 36//6 34//5
f 37//6 38//7 36//6
f 14//8 49//8 41//8
f 39//7 40//9 38//7
f 16//9 26//1 40//9
f 7//8 13//8 15//8
f 18//10 24//11 25//12
f 6//8 42//8 44//8
f 10//8 47//8 12//8
f 41//8 43//8 2//8
f 2//8 42//8 4//8
f 6//8 45//8 8//8
f 12//8 48//8 14//8
f 10//8 45//8 46//8
f 23//13 22//14 25//12
f 21//15 20//16 25//12
f 19//17 17//18 25//12
f 24//11 23//13 25//12
f 22//14 21//15 25//12
f 20//16 19//17 25//12
f 17//18 18//10 25//12
f 29//1 28//2 27//2
f 28//2 31//3 30//3
f 31//3 33//4 32//4
f 33//4 35//5 34//5
f 35//5 37//6 36//6
f 37//6 39//7 38//7
f 14//8 48//8 49//8
f 39//7 16//9 40//9
f 16//9 29//1 26//1
f 15//8 1//8 3//8
f 3//8 5//8 7//8
f 7//8 9//8 11//8
f 11//8 13//8 7//8
f 15//8 3//8 7//8
f 6//8 4//8 42//8
f 10//8 46//8 47//8
f 41//8 49//8 43//8
f 2//8 43//8 42//8
f 6//8 44//8 45//8
f 12//8 47//8 48//8
f 10//8 8//8 45//8
